{
    "accessors" : [
        {
            "bufferView" : 0, 
            "componentType" : 5121, 
            "count" : 372, 
            "max" : [
                191
            ], 
            "min" : [
                0
            ], 
            "type" : "SCALAR"
        }, 
        {
            "bufferView" : 1, 
            "componentType" : 5126, 
            "count" : 192, 
            "max" : [
                0.753182590007782, 
                1.0, 
                0.7531824707984924
            ], 
            "min" : [
                -0.7531825304031372, 
                -1.0, 
                -0.7531826496124268
            ], 
            "type" : "VEC3"
        }, 
        {
            "bufferView" : 2, 
            "componentType" : 5126, 
            "count" : 192, 
            "max" : [
                0.9867886304855347, 
                1.0, 
                0.9867886900901794
            ], 
            "min" : [
                -0.9867887496948242, 
                -1.0, 
                -0.9867886900901794
            ], 
            "type" : "VEC3"
        }, 
        {
            "bufferView" : 3, 
            "componentType" : 5121, 
            "count" : 240, 
            "max" : [
                239
            ], 
            "min" : [
                0
            ], 
            "type" : "SCALAR"
        }, 
        {
            "bufferView" : 4, 
            "componentType" : 5126, 
            "count" : 240, 
            "max" : [
                0.9510578513145447, 
                1.0, 
                0.9999999403953552
            ], 
            "min" : [
                -0.9510578513145447, 
                -1.0, 
                -0.9999999403953552
            ], 
            "type" : "VEC3"
        }, 
        {
            "bufferView" : 5, 
            "componentType" : 5126, 
            "count" : 240, 
            "max" : [
                0.9920774102210999, 
                0.9435237646102905, 
                0.9435215592384338
            ], 
            "min" : [
                -0.9920774102210999, 
                -0.9435237646102905, 
                -0.9435215592384338
            ], 
            "type" : "VEC3"
        }, 
        {
            "bufferView" : 6, 
            "componentType" : 5123, 
            "count" : 3456, 
            "max" : [
                2303
            ], 
            "min" : [
                0
            ], 
            "type" : "SCALAR"
        }, 
        {
            "bufferView" : 7, 
            "componentType" : 5126, 
            "count" : 2304, 
            "max" : [
                1.25, 
                0.25, 
                1.2500001192092896
            ], 
            "min" : [
                -1.25, 
                -0.25, 
                -1.2500001192092896
            ], 
            "type" : "VEC3"
        }, 
        {
            "bufferView" : 8, 
            "componentType" : 5126, 
            "count" : 2304, 
            "max" : [
                0.9639959335327148, 
                0.9657869935035706, 
                0.9639958143234253
            ], 
            "min" : [
                -0.9639959931373596, 
                -0.9657869935035706, 
                -0.9639958739280701
            ], 
            "type" : "VEC3"
        }
    ], 
    "asset" : {
        "generator" : "Khronos Blender glTF 2.0 exporter", 
        "version" : "2.0"
    }, 
    "bufferViews" : [
        {
            "buffer" : 0, 
            "byteLength" : 372, 
            "byteOffset" : 0, 
            "target" : 34963
        }, 
        {
            "buffer" : 0, 
            "byteLength" : 2304, 
            "byteOffset" : 372, 
            "target" : 34962
        }, 
        {
            "buffer" : 0, 
            "byteLength" : 2304, 
            "byteOffset" : 2676, 
            "target" : 34962
        }, 
        {
            "buffer" : 0, 
            "byteLength" : 240, 
            "byteOffset" : 4980, 
            "target" : 34963
        }, 
        {
            "buffer" : 0, 
            "byteLength" : 2880, 
            "byteOffset" : 5220, 
            "target" : 34962
        }, 
        {
            "buffer" : 0, 
            "byteLength" : 2880, 
            "byteOffset" : 8100, 
            "target" : 34962
        }, 
        {
            "buffer" : 0, 
            "byteLength" : 6912, 
            "byteOffset" : 10980, 
            "target" : 34963
        }, 
        {
            "buffer" : 0, 
            "byteLength" : 27648, 
            "byteOffset" : 17892, 
            "target" : 34962
        }, 
        {
            "buffer" : 0, 
            "byteLength" : 27648, 
            "byteOffset" : 45540, 
            "target" : 34962
        }
    ], 
    "buffers" : [
        {
            "byteLength" : 73188, 
            "uri" : "plant5.bin"
        }
    ], 
    "materials" : [
        {
            "doubleSided" : true, 
            "name" : "Material.001", 
            "pbrMetallicRoughness" : {
                "baseColorFactor" : [
                    0.7673046588897705, 
                    0.7673046588897705, 
                    0.7673046588897705, 
                    1.0
                ], 
                "metallicFactor" : 0.0, 
                "roughnessFactor" : 0.0
            }
        }, 
        {
            "name" : "Material.002", 
            "pbrMetallicRoughness" : {
                "baseColorFactor" : [
                    0.029918726533651352, 
                    1.0, 
                    0.07261732220649719, 
                    1.0
                ], 
                "metallicFactor" : 0.0, 
                "roughnessFactor" : 0.0
            }
        }
    ], 
    "meshes" : [
        {
            "name" : "Cylinder", 
            "primitives" : [
                {
                    "attributes" : {
                        "NORMAL" : 2, 
                        "POSITION" : 1
                    }, 
                    "indices" : 0, 
                    "material" : 0
                }
            ]
        }, 
        {
            "name" : "Icosphere", 
            "primitives" : [
                {
                    "attributes" : {
                        "NORMAL" : 5, 
                        "POSITION" : 4
                    }, 
                    "indices" : 3, 
                    "material" : 1
                }
            ]
        }, 
        {
            "name" : "Torus", 
            "primitives" : [
                {
                    "attributes" : {
                        "NORMAL" : 8, 
                        "POSITION" : 7
                    }, 
                    "indices" : 6, 
                    "material" : 0
                }
            ]
        }
    ], 
    "nodes" : [
        {
            "name" : "Camera", 
            "rotation" : [
                0.483536034822464, 
                0.33687159419059753, 
                -0.20870360732078552, 
                0.7804827094078064
            ], 
            "translation" : [
                7.481131553649902, 
                5.34366512298584, 
                6.5076398849487305
            ]
        }, 
        {
            "mesh" : 0, 
            "name" : "Cylinder", 
            "translation" : [
                0.0, 
                1.056930422782898, 
                -0.0
            ]
        }, 
        {
            "mesh" : 1, 
            "name" : "Icosphere", 
            "scale" : [
                0.9228846430778503, 
                0.9228846430778503, 
                0.9228846430778503
            ], 
            "translation" : [
                0.0, 
                2.8420298099517822, 
                -0.0
            ]
        }, 
        {
            "name" : "Lamp", 
            "rotation" : [
                0.16907575726509094, 
                0.7558802962303162, 
                -0.27217137813568115, 
                0.570947527885437
            ], 
            "scale" : [
                1.0, 
                1.0, 
                0.9999999403953552
            ], 
            "translation" : [
                4.076245307922363, 
                5.903861999511719, 
                -1.0054539442062378
            ]
        }, 
        {
            "mesh" : 2, 
            "name" : "Torus", 
            "scale" : [
                0.6487931609153748, 
                0.37147125601768494, 
                0.6487931609153748
            ], 
            "translation" : [
                0.0, 
                2.1082091331481934, 
                -0.0
            ]
        }
    ], 
    "scene" : 0, 
    "scenes" : [
        {
            "name" : "Scene", 
            "nodes" : [
                2, 
                4, 
                1, 
                3, 
                0
            ]
        }
    ]
}
