{
    "accessors" : [
        {
            "bufferView" : 0, 
            "componentType" : 5123, 
            "count" : 2880, 
            "max" : [
                1983
            ], 
            "min" : [
                0
            ], 
            "type" : "SCALAR"
        }, 
        {
            "bufferView" : 1, 
            "componentType" : 5126, 
            "count" : 1984, 
            "max" : [
                0.9921365976333618, 
                0.13280123472213745, 
                0.9478787183761597
            ], 
            "min" : [
                -0.9921445250511169, 
                -0.5587201714515686, 
                -1.0184355974197388
            ], 
            "type" : "VEC3"
        }, 
        {
            "bufferView" : 2, 
            "componentType" : 5126, 
            "count" : 1984, 
            "max" : [
                0.975051760673523, 
                0.999652624130249, 
                0.9506664276123047
            ], 
            "min" : [
                -0.9750398993492126, 
                -0.9999898076057434, 
                -0.9811696410179138
            ], 
            "type" : "VEC3"
        }, 
        {
            "bufferView" : 3, 
            "componentType" : 5123, 
            "count" : 2880, 
            "max" : [
                1983
            ], 
            "min" : [
                0
            ], 
            "type" : "SCALAR"
        }, 
        {
            "bufferView" : 4, 
            "componentType" : 5126, 
            "count" : 1984, 
            "max" : [
                0.9921365976333618, 
                0.13280123472213745, 
                0.9478787183761597
            ], 
            "min" : [
                -0.9921445250511169, 
                -0.5587201714515686, 
                -1.0184355974197388
            ], 
            "type" : "VEC3"
        }, 
        {
            "bufferView" : 5, 
            "componentType" : 5126, 
            "count" : 1984, 
            "max" : [
                0.975051760673523, 
                0.999652624130249, 
                0.9506664276123047
            ], 
            "min" : [
                -0.9750398993492126, 
                -0.9999898076057434, 
                -0.9811696410179138
            ], 
            "type" : "VEC3"
        }, 
        {
            "bufferView" : 6, 
            "componentType" : 5123, 
            "count" : 17592, 
            "max" : [
                11682
            ], 
            "min" : [
                0
            ], 
            "type" : "SCALAR"
        }, 
        {
            "bufferView" : 7, 
            "componentType" : 5126, 
            "count" : 11683, 
            "max" : [
                0.6590821146965027, 
                4.4561567306518555, 
                1.5212479829788208
            ], 
            "min" : [
                -0.9213861227035522, 
                0.0, 
                -2.041307210922241
            ], 
            "type" : "VEC3"
        }, 
        {
            "bufferView" : 8, 
            "componentType" : 5126, 
            "count" : 11683, 
            "max" : [
                0.9970070123672485, 
                0.999599039554596, 
                0.9966342449188232
            ], 
            "min" : [
                -0.9986936450004578, 
                -0.9987169504165649, 
                -0.9868631958961487
            ], 
            "type" : "VEC3"
        }, 
        {
            "bufferView" : 9, 
            "componentType" : 5123, 
            "count" : 2880, 
            "max" : [
                1983
            ], 
            "min" : [
                0
            ], 
            "type" : "SCALAR"
        }, 
        {
            "bufferView" : 10, 
            "componentType" : 5126, 
            "count" : 1984, 
            "max" : [
                1.0597463846206665, 
                0.38164222240448, 
                1.0276448726654053
            ], 
            "min" : [
                -1.0597022771835327, 
                -0.650439977645874, 
                -1.1140968799591064
            ], 
            "type" : "VEC3"
        }, 
        {
            "bufferView" : 11, 
            "componentType" : 5126, 
            "count" : 1984, 
            "max" : [
                0.9549302458763123, 
                0.9998798966407776, 
                0.9681826233863831
            ], 
            "min" : [
                -0.9735128879547119, 
                -0.9997501969337463, 
                -0.9926776885986328
            ], 
            "type" : "VEC3"
        }, 
        {
            "bufferView" : 12, 
            "componentType" : 5123, 
            "count" : 2880, 
            "max" : [
                1983
            ], 
            "min" : [
                0
            ], 
            "type" : "SCALAR"
        }, 
        {
            "bufferView" : 13, 
            "componentType" : 5126, 
            "count" : 1984, 
            "max" : [
                1.0597463846206665, 
                0.38164222240448, 
                1.0276448726654053
            ], 
            "min" : [
                -1.0597022771835327, 
                -0.650439977645874, 
                -1.1140968799591064
            ], 
            "type" : "VEC3"
        }, 
        {
            "bufferView" : 14, 
            "componentType" : 5126, 
            "count" : 1984, 
            "max" : [
                0.9549302458763123, 
                0.9998798966407776, 
                0.9681826233863831
            ], 
            "min" : [
                -0.9735128879547119, 
                -0.9997501969337463, 
                -0.9926776885986328
            ], 
            "type" : "VEC3"
        }, 
        {
            "bufferView" : 15, 
            "componentType" : 5123, 
            "count" : 2880, 
            "max" : [
                1983
            ], 
            "min" : [
                0
            ], 
            "type" : "SCALAR"
        }, 
        {
            "bufferView" : 16, 
            "componentType" : 5126, 
            "count" : 1984, 
            "max" : [
                1.0597463846206665, 
                0.38164222240448, 
                1.0276448726654053
            ], 
            "min" : [
                -1.0597022771835327, 
                -0.650439977645874, 
                -1.1140968799591064
            ], 
            "type" : "VEC3"
        }, 
        {
            "bufferView" : 17, 
            "componentType" : 5126, 
            "count" : 1984, 
            "max" : [
                0.9549302458763123, 
                0.9998798966407776, 
                0.9681826233863831
            ], 
            "min" : [
                -0.9735128879547119, 
                -0.9997501969337463, 
                -0.9926776885986328
            ], 
            "type" : "VEC3"
        }, 
        {
            "bufferView" : 18, 
            "componentType" : 5123, 
            "count" : 2880, 
            "max" : [
                1983
            ], 
            "min" : [
                0
            ], 
            "type" : "SCALAR"
        }, 
        {
            "bufferView" : 19, 
            "componentType" : 5126, 
            "count" : 1984, 
            "max" : [
                0.9921365976333618, 
                0.13280123472213745, 
                0.9478787183761597
            ], 
            "min" : [
                -0.9921445250511169, 
                -0.5587201714515686, 
                -1.0184355974197388
            ], 
            "type" : "VEC3"
        }, 
        {
            "bufferView" : 20, 
            "componentType" : 5126, 
            "count" : 1984, 
            "max" : [
                0.975051760673523, 
                0.999652624130249, 
                0.9506664276123047
            ], 
            "min" : [
                -0.9750398993492126, 
                -0.9999898076057434, 
                -0.9811696410179138
            ], 
            "type" : "VEC3"
        }, 
        {
            "bufferView" : 21, 
            "componentType" : 5123, 
            "count" : 2880, 
            "max" : [
                1983
            ], 
            "min" : [
                0
            ], 
            "type" : "SCALAR"
        }, 
        {
            "bufferView" : 22, 
            "componentType" : 5126, 
            "count" : 1984, 
            "max" : [
                0.9921365976333618, 
                0.13280123472213745, 
                0.9478787183761597
            ], 
            "min" : [
                -0.9921445250511169, 
                -0.5587201714515686, 
                -1.0184355974197388
            ], 
            "type" : "VEC3"
        }, 
        {
            "bufferView" : 23, 
            "componentType" : 5126, 
            "count" : 1984, 
            "max" : [
                0.975051760673523, 
                0.999652624130249, 
                0.9506664276123047
            ], 
            "min" : [
                -0.9750398993492126, 
                -0.9999898076057434, 
                -0.9811696410179138
            ], 
            "type" : "VEC3"
        }, 
        {
            "bufferView" : 24, 
            "componentType" : 5123, 
            "count" : 2880, 
            "max" : [
                1983
            ], 
            "min" : [
                0
            ], 
            "type" : "SCALAR"
        }, 
        {
            "bufferView" : 25, 
            "componentType" : 5126, 
            "count" : 1984, 
            "max" : [
                1.0597463846206665, 
                0.38164222240448, 
                1.0276448726654053
            ], 
            "min" : [
                -1.0597022771835327, 
                -0.650439977645874, 
                -1.1140968799591064
            ], 
            "type" : "VEC3"
        }, 
        {
            "bufferView" : 26, 
            "componentType" : 5126, 
            "count" : 1984, 
            "max" : [
                0.9549302458763123, 
                0.9998798966407776, 
                0.9681826233863831
            ], 
            "min" : [
                -0.9735128879547119, 
                -0.9997501969337463, 
                -0.9926776885986328
            ], 
            "type" : "VEC3"
        }
    ], 
    "asset" : {
        "generator" : "Khronos Blender glTF 2.0 exporter", 
        "version" : "2.0"
    }, 
    "bufferViews" : [
        {
            "buffer" : 0, 
            "byteLength" : 5760, 
            "byteOffset" : 0, 
            "target" : 34963
        }, 
        {
            "buffer" : 0, 
            "byteLength" : 23808, 
            "byteOffset" : 5760, 
            "target" : 34962
        }, 
        {
            "buffer" : 0, 
            "byteLength" : 23808, 
            "byteOffset" : 29568, 
            "target" : 34962
        }, 
        {
            "buffer" : 0, 
            "byteLength" : 5760, 
            "byteOffset" : 53376, 
            "target" : 34963
        }, 
        {
            "buffer" : 0, 
            "byteLength" : 23808, 
            "byteOffset" : 59136, 
            "target" : 34962
        }, 
        {
            "buffer" : 0, 
            "byteLength" : 23808, 
            "byteOffset" : 82944, 
            "target" : 34962
        }, 
        {
            "buffer" : 0, 
            "byteLength" : 35184, 
            "byteOffset" : 106752, 
            "target" : 34963
        }, 
        {
            "buffer" : 0, 
            "byteLength" : 140196, 
            "byteOffset" : 141936, 
            "target" : 34962
        }, 
        {
            "buffer" : 0, 
            "byteLength" : 140196, 
            "byteOffset" : 282132, 
            "target" : 34962
        }, 
        {
            "buffer" : 0, 
            "byteLength" : 5760, 
            "byteOffset" : 422328, 
            "target" : 34963
        }, 
        {
            "buffer" : 0, 
            "byteLength" : 23808, 
            "byteOffset" : 428088, 
            "target" : 34962
        }, 
        {
            "buffer" : 0, 
            "byteLength" : 23808, 
            "byteOffset" : 451896, 
            "target" : 34962
        }, 
        {
            "buffer" : 0, 
            "byteLength" : 5760, 
            "byteOffset" : 475704, 
            "target" : 34963
        }, 
        {
            "buffer" : 0, 
            "byteLength" : 23808, 
            "byteOffset" : 481464, 
            "target" : 34962
        }, 
        {
            "buffer" : 0, 
            "byteLength" : 23808, 
            "byteOffset" : 505272, 
            "target" : 34962
        }, 
        {
            "buffer" : 0, 
            "byteLength" : 5760, 
            "byteOffset" : 529080, 
            "target" : 34963
        }, 
        {
            "buffer" : 0, 
            "byteLength" : 23808, 
            "byteOffset" : 534840, 
            "target" : 34962
        }, 
        {
            "buffer" : 0, 
            "byteLength" : 23808, 
            "byteOffset" : 558648, 
            "target" : 34962
        }, 
        {
            "buffer" : 0, 
            "byteLength" : 5760, 
            "byteOffset" : 582456, 
            "target" : 34963
        }, 
        {
            "buffer" : 0, 
            "byteLength" : 23808, 
            "byteOffset" : 588216, 
            "target" : 34962
        }, 
        {
            "buffer" : 0, 
            "byteLength" : 23808, 
            "byteOffset" : 612024, 
            "target" : 34962
        }, 
        {
            "buffer" : 0, 
            "byteLength" : 5760, 
            "byteOffset" : 635832, 
            "target" : 34963
        }, 
        {
            "buffer" : 0, 
            "byteLength" : 23808, 
            "byteOffset" : 641592, 
            "target" : 34962
        }, 
        {
            "buffer" : 0, 
            "byteLength" : 23808, 
            "byteOffset" : 665400, 
            "target" : 34962
        }, 
        {
            "buffer" : 0, 
            "byteLength" : 5760, 
            "byteOffset" : 689208, 
            "target" : 34963
        }, 
        {
            "buffer" : 0, 
            "byteLength" : 23808, 
            "byteOffset" : 694968, 
            "target" : 34962
        }, 
        {
            "buffer" : 0, 
            "byteLength" : 23808, 
            "byteOffset" : 718776, 
            "target" : 34962
        }
    ], 
    "buffers" : [
        {
            "byteLength" : 742584, 
            "uri" : "tree3.bin"
        }
    ], 
    "materials" : [
        {
            "name" : "Material.004", 
            "pbrMetallicRoughness" : {
                "baseColorFactor" : [
                    0.006809435784816742, 
                    0.5367873907089233, 
                    0.014106095768511295, 
                    1.0
                ], 
                "metallicFactor" : 0.0, 
                "roughnessFactor" : 0.0
            }
        }, 
        {
            "name" : "Material.005", 
            "pbrMetallicRoughness" : {
                "baseColorFactor" : [
                    0.5757039785385132, 
                    0.3144760727882385, 
                    0.07738710194826126, 
                    1.0
                ], 
                "metallicFactor" : 0.0, 
                "roughnessFactor" : 0.0
            }
        }
    ], 
    "meshes" : [
        {
            "name" : "Sphere.003", 
            "primitives" : [
                {
                    "attributes" : {
                        "NORMAL" : 2, 
                        "POSITION" : 1
                    }, 
                    "indices" : 0, 
                    "material" : 0
                }
            ]
        }, 
        {
            "name" : "Sphere.006", 
            "primitives" : [
                {
                    "attributes" : {
                        "NORMAL" : 5, 
                        "POSITION" : 4
                    }, 
                    "indices" : 3, 
                    "material" : 0
                }
            ]
        }, 
        {
            "name" : "Cube", 
            "primitives" : [
                {
                    "attributes" : {
                        "NORMAL" : 8, 
                        "POSITION" : 7
                    }, 
                    "indices" : 6, 
                    "material" : 1
                }
            ]
        }, 
        {
            "name" : "Sphere.002", 
            "primitives" : [
                {
                    "attributes" : {
                        "NORMAL" : 11, 
                        "POSITION" : 10
                    }, 
                    "indices" : 9, 
                    "material" : 0
                }
            ]
        }, 
        {
            "name" : "Sphere.000", 
            "primitives" : [
                {
                    "attributes" : {
                        "NORMAL" : 14, 
                        "POSITION" : 13
                    }, 
                    "indices" : 12, 
                    "material" : 0
                }
            ]
        }, 
        {
            "name" : "Sphere.010", 
            "primitives" : [
                {
                    "attributes" : {
                        "NORMAL" : 17, 
                        "POSITION" : 16
                    }, 
                    "indices" : 15, 
                    "material" : 0
                }
            ]
        }, 
        {
            "name" : "Sphere.005", 
            "primitives" : [
                {
                    "attributes" : {
                        "NORMAL" : 20, 
                        "POSITION" : 19
                    }, 
                    "indices" : 18, 
                    "material" : 0
                }
            ]
        }, 
        {
            "name" : "Sphere.007", 
            "primitives" : [
                {
                    "attributes" : {
                        "NORMAL" : 23, 
                        "POSITION" : 22
                    }, 
                    "indices" : 21, 
                    "material" : 0
                }
            ]
        }, 
        {
            "name" : "Sphere.008", 
            "primitives" : [
                {
                    "attributes" : {
                        "NORMAL" : 26, 
                        "POSITION" : 25
                    }, 
                    "indices" : 24, 
                    "material" : 0
                }
            ]
        }
    ], 
    "nodes" : [
        {
            "name" : "Camera", 
            "rotation" : [
                0.483536034822464, 
                0.33687159419059753, 
                -0.20870360732078552, 
                0.7804827094078064
            ], 
            "translation" : [
                7.481131553649902, 
                5.34366512298584, 
                6.5076398849487305
            ]
        }, 
        {
            "mesh" : 2, 
            "name" : "Cube", 
            "translation" : [
                0.2045661360025406, 
                -0.22298085689544678, 
                -0.04196015000343323
            ]
        }, 
        {
            "name" : "Lamp", 
            "rotation" : [
                0.16907575726509094, 
                0.7558802962303162, 
                -0.27217137813568115, 
                0.570947527885437
            ], 
            "scale" : [
                1.0, 
                1.0, 
                0.9999999403953552
            ], 
            "translation" : [
                4.076245307922363, 
                5.903861999511719, 
                -1.0054539442062378
            ]
        }, 
        {
            "mesh" : 3, 
            "name" : "Sphere.001", 
            "scale" : [
                0.6594200134277344, 
                0.36583593487739563, 
                0.6594200134277344
            ], 
            "translation" : [
                0.2146938443183899, 
                3.549363136291504, 
                -2.241478443145752
            ]
        }, 
        {
            "mesh" : 0, 
            "name" : "Sphere.002", 
            "scale" : [
                1.0, 
                0.6456607580184937, 
                1.0
            ], 
            "translation" : [
                -1.1382871866226196, 
                4.409337043762207, 
                0.6205644607543945
            ]
        }, 
        {
            "mesh" : 6, 
            "name" : "Sphere.004", 
            "scale" : [
                0.8828637003898621, 
                0.8503317832946777, 
                1.0884495973587036
            ], 
            "translation" : [
                -0.1396741271018982, 
                4.277661323547363, 
                1.2563196420669556
            ]
        }, 
        {
            "mesh" : 1, 
            "name" : "Sphere.005", 
            "scale" : [
                1.0, 
                0.7592024207115173, 
                1.0
            ], 
            "translation" : [
                -0.10955075919628143, 
                3.33866024017334, 
                -1.7754664421081543
            ]
        }, 
        {
            "mesh" : 7, 
            "name" : "Sphere.006", 
            "scale" : [
                1.0, 
                0.9019884467124939, 
                1.0
            ], 
            "translation" : [
                0.48614805936813354, 
                3.121767282485962, 
                -1.5577186346054077
            ]
        }, 
        {
            "mesh" : 8, 
            "name" : "Sphere.007", 
            "scale" : [
                0.6594200134277344, 
                0.4460254907608032, 
                0.6594200134277344
            ], 
            "translation" : [
                1.1638779640197754, 
                3.290470600128174, 
                -1.3502745628356934
            ]
        }, 
        {
            "mesh" : 4, 
            "name" : "Sphere.008", 
            "scale" : [
                0.6594200134277344, 
                0.5874916315078735, 
                0.6594200134277344
            ], 
            "translation" : [
                -0.9289770126342773, 
                4.564202785491943, 
                0.4110761880874634
            ]
        }, 
        {
            "mesh" : 5, 
            "name" : "Sphere.009", 
            "scale" : [
                0.6594200134277344, 
                0.6594200134277344, 
                0.6594200134277344
            ], 
            "translation" : [
                -0.260755330324173, 
                4.440332412719727, 
                1.5727565288543701
            ]
        }
    ], 
    "scene" : 0, 
    "scenes" : [
        {
            "name" : "Scene", 
            "nodes" : [
                1, 
                2, 
                0, 
                3, 
                4, 
                5, 
                6, 
                7, 
                8, 
                10, 
                9
            ]
        }
    ]
}
