{
    "accessors" : [
        {
            "bufferView" : 0, 
            "componentType" : 5123, 
            "count" : 408, 
            "max" : [
                277
            ], 
            "min" : [
                0
            ], 
            "type" : "SCALAR"
        }, 
        {
            "bufferView" : 1, 
            "componentType" : 5126, 
            "count" : 278, 
            "max" : [
                0.15440461039543152, 
                1.0430673360824585, 
                0.14286093413829803
            ], 
            "min" : [
                -0.1410236358642578, 
                0.0, 
                -0.15262213349342346
            ], 
            "type" : "VEC3"
        }, 
        {
            "bufferView" : 2, 
            "componentType" : 5126, 
            "count" : 278, 
            "max" : [
                0.9517432451248169, 
                0.8571358323097229, 
                0.9468246102333069
            ], 
            "min" : [
                -0.948853075504303, 
                -0.8548912405967712, 
                -0.9515143036842346
            ], 
            "type" : "VEC3"
        }, 
        {
            "bufferView" : 3, 
            "componentType" : 5121, 
            "count" : 240, 
            "max" : [
                239
            ], 
            "min" : [
                0
            ], 
            "type" : "SCALAR"
        }, 
        {
            "bufferView" : 4, 
            "componentType" : 5126, 
            "count" : 240, 
            "max" : [
                0.9510578513145447, 
                1.0, 
                0.9999999403953552
            ], 
            "min" : [
                -0.9510578513145447, 
                -1.0, 
                -0.9999999403953552
            ], 
            "type" : "VEC3"
        }, 
        {
            "bufferView" : 5, 
            "componentType" : 5126, 
            "count" : 240, 
            "max" : [
                0.960300862789154, 
                0.9435237646102905, 
                0.8468876481056213
            ], 
            "min" : [
                -0.960300862789154, 
                -0.9435237646102905, 
                -0.9812815189361572
            ], 
            "type" : "VEC3"
        }
    ], 
    "asset" : {
        "generator" : "Khronos Blender glTF 2.0 exporter", 
        "version" : "2.0"
    }, 
    "bufferViews" : [
        {
            "buffer" : 0, 
            "byteLength" : 816, 
            "byteOffset" : 0, 
            "target" : 34963
        }, 
        {
            "buffer" : 0, 
            "byteLength" : 3336, 
            "byteOffset" : 816, 
            "target" : 34962
        }, 
        {
            "buffer" : 0, 
            "byteLength" : 3336, 
            "byteOffset" : 4152, 
            "target" : 34962
        }, 
        {
            "buffer" : 0, 
            "byteLength" : 240, 
            "byteOffset" : 7488, 
            "target" : 34963
        }, 
        {
            "buffer" : 0, 
            "byteLength" : 2880, 
            "byteOffset" : 7728, 
            "target" : 34962
        }, 
        {
            "buffer" : 0, 
            "byteLength" : 2880, 
            "byteOffset" : 10608, 
            "target" : 34962
        }
    ], 
    "buffers" : [
        {
            "byteLength" : 13488, 
            "uri" : "tree16.bin"
        }
    ], 
    "materials" : [
        {
            "name" : "Material.001", 
            "pbrMetallicRoughness" : {
                "baseColorFactor" : [
                    0.4181289076805115, 
                    1.0, 
                    0.2597154974937439, 
                    1.0
                ], 
                "metallicFactor" : 0.0, 
                "roughnessFactor" : 0.0
            }
        }, 
        {
            "name" : "Material.002", 
            "pbrMetallicRoughness" : {
                "baseColorFactor" : [
                    1.0, 
                    0.6654915809631348, 
                    0.21898728609085083, 
                    1.0
                ], 
                "metallicFactor" : 0.0, 
                "roughnessFactor" : 0.0
            }
        }
    ], 
    "meshes" : [
        {
            "name" : "Cube", 
            "primitives" : [
                {
                    "attributes" : {
                        "NORMAL" : 2, 
                        "POSITION" : 1
                    }, 
                    "indices" : 0, 
                    "material" : 1
                }
            ]
        }, 
        {
            "name" : "Icosphere", 
            "primitives" : [
                {
                    "attributes" : {
                        "NORMAL" : 5, 
                        "POSITION" : 4
                    }, 
                    "indices" : 3, 
                    "material" : 0
                }
            ]
        }
    ], 
    "nodes" : [
        {
            "name" : "Camera", 
            "rotation" : [
                0.483536034822464, 
                0.33687159419059753, 
                -0.20870360732078552, 
                0.7804827094078064
            ], 
            "translation" : [
                7.481131553649902, 
                5.34366512298584, 
                6.5076398849487305
            ]
        }, 
        {
            "mesh" : 0, 
            "name" : "Cube"
        }, 
        {
            "mesh" : 1, 
            "name" : "Icosphere", 
            "scale" : [
                0.6216446161270142, 
                1.0, 
                0.6880543231964111
            ], 
            "translation" : [
                0.0487598180770874, 
                1.8587356805801392, 
                0.0028151050209999084
            ]
        }, 
        {
            "name" : "Lamp", 
            "rotation" : [
                0.16907575726509094, 
                0.7558802962303162, 
                -0.27217137813568115, 
                0.570947527885437
            ], 
            "scale" : [
                1.0, 
                1.0, 
                0.9999999403953552
            ], 
            "translation" : [
                4.076245307922363, 
                5.903861999511719, 
                -1.0054539442062378
            ]
        }
    ], 
    "scene" : 0, 
    "scenes" : [
        {
            "name" : "Scene", 
            "nodes" : [
                2, 
                1, 
                3, 
                0
            ]
        }
    ]
}
