{
    "accessors" : [
        {
            "bufferView" : 0, 
            "componentType" : 5121, 
            "count" : 240, 
            "max" : [
                239
            ], 
            "min" : [
                0
            ], 
            "type" : "SCALAR"
        }, 
        {
            "bufferView" : 1, 
            "componentType" : 5126, 
            "count" : 240, 
            "max" : [
                0.9510578513145447, 
                0.9988826513290405, 
                0.9999999403953552
            ], 
            "min" : [
                -0.9510578513145447, 
                -0.8506544232368469, 
                -0.9999999403953552
            ], 
            "type" : "VEC3"
        }, 
        {
            "bufferView" : 2, 
            "componentType" : 5126, 
            "count" : 240, 
            "max" : [
                0.9921355247497559, 
                0.9877391457557678, 
                0.9436696171760559
            ], 
            "min" : [
                -0.9920774102210999, 
                -0.9986425042152405, 
                -0.9442234635353088
            ], 
            "type" : "VEC3"
        }, 
        {
            "bufferView" : 3, 
            "componentType" : 5123, 
            "count" : 4272, 
            "max" : [
                2847
            ], 
            "min" : [
                0
            ], 
            "type" : "SCALAR"
        }, 
        {
            "bufferView" : 4, 
            "componentType" : 5126, 
            "count" : 2848, 
            "max" : [
                0.4386628270149231, 
                1.4498498439788818, 
                0.6616086959838867
            ], 
            "min" : [
                -0.7296428680419922, 
                -0.20861703157424927, 
                -0.6774560213088989
            ], 
            "type" : "VEC3"
        }, 
        {
            "bufferView" : 5, 
            "componentType" : 5126, 
            "count" : 2848, 
            "max" : [
                0.9998290538787842, 
                0.9816229939460754, 
                0.996375560760498
            ], 
            "min" : [
                -0.9995721578598022, 
                -0.9973357319831848, 
                -0.9978838562965393
            ], 
            "type" : "VEC3"
        }
    ], 
    "asset" : {
        "generator" : "Khronos Blender glTF 2.0 exporter", 
        "version" : "2.0"
    }, 
    "bufferViews" : [
        {
            "buffer" : 0, 
            "byteLength" : 240, 
            "byteOffset" : 0, 
            "target" : 34963
        }, 
        {
            "buffer" : 0, 
            "byteLength" : 2880, 
            "byteOffset" : 240, 
            "target" : 34962
        }, 
        {
            "buffer" : 0, 
            "byteLength" : 2880, 
            "byteOffset" : 3120, 
            "target" : 34962
        }, 
        {
            "buffer" : 0, 
            "byteLength" : 8544, 
            "byteOffset" : 6000, 
            "target" : 34963
        }, 
        {
            "buffer" : 0, 
            "byteLength" : 34176, 
            "byteOffset" : 14544, 
            "target" : 34962
        }, 
        {
            "buffer" : 0, 
            "byteLength" : 34176, 
            "byteOffset" : 48720, 
            "target" : 34962
        }
    ], 
    "buffers" : [
        {
            "byteLength" : 82896, 
            "uri" : "tree59.bin"
        }
    ], 
    "materials" : [
        {
            "name" : "Material.001", 
            "pbrMetallicRoughness" : {
                "baseColorFactor" : [
                    0.1608526110649109, 
                    0.5937247276306152, 
                    0.08500732481479645, 
                    1.0
                ], 
                "metallicFactor" : 0.0, 
                "roughnessFactor" : 0.0
            }
        }, 
        {
            "name" : "Material.002", 
            "pbrMetallicRoughness" : {
                "baseColorFactor" : [
                    0.22163408994674683, 
                    0.1007160097360611, 
                    0.022465884685516357, 
                    1.0
                ], 
                "metallicFactor" : 0.0, 
                "roughnessFactor" : 0.0
            }
        }
    ], 
    "meshes" : [
        {
            "name" : "Icosphere.001", 
            "primitives" : [
                {
                    "attributes" : {
                        "NORMAL" : 2, 
                        "POSITION" : 1
                    }, 
                    "indices" : 0, 
                    "material" : 0
                }
            ]
        }, 
        {
            "name" : "Cube", 
            "primitives" : [
                {
                    "attributes" : {
                        "NORMAL" : 5, 
                        "POSITION" : 4
                    }, 
                    "indices" : 3, 
                    "material" : 1
                }
            ]
        }
    ], 
    "nodes" : [
        {
            "name" : "Camera", 
            "rotation" : [
                0.483536034822464, 
                0.33687159419059753, 
                -0.20870360732078552, 
                0.7804827094078064
            ], 
            "translation" : [
                7.481131553649902, 
                5.34366512298584, 
                6.5076398849487305
            ]
        }, 
        {
            "mesh" : 1, 
            "name" : "Cube"
        }, 
        {
            "mesh" : 0, 
            "name" : "Icosphere", 
            "scale" : [
                1.6346670389175415, 
                1.6346670389175415, 
                1.6346670389175415
            ], 
            "translation" : [
                -0.021765833720564842, 
                2.7561895847320557, 
                -0.012237830087542534
            ]
        }, 
        {
            "name" : "Lamp", 
            "rotation" : [
                0.16907575726509094, 
                0.7558802962303162, 
                -0.27217137813568115, 
                0.570947527885437
            ], 
            "scale" : [
                1.0, 
                1.0, 
                0.9999999403953552
            ], 
            "translation" : [
                4.076245307922363, 
                5.903861999511719, 
                -1.0054539442062378
            ]
        }
    ], 
    "scene" : 0, 
    "scenes" : [
        {
            "name" : "Scene", 
            "nodes" : [
                2, 
                1, 
                3, 
                0
            ]
        }
    ]
}
