{
    "accessors" : [
        {
            "bufferView" : 0, 
            "componentType" : 5121, 
            "count" : 36, 
            "max" : [
                23
            ], 
            "min" : [
                0
            ], 
            "type" : "SCALAR"
        }, 
        {
            "bufferView" : 1, 
            "componentType" : 5126, 
            "count" : 24, 
            "max" : [
                1.0, 
                1.0, 
                1.0
            ], 
            "min" : [
                -1.0, 
                -1.0, 
                -1.0
            ], 
            "type" : "VEC3"
        }, 
        {
            "bufferView" : 2, 
            "componentType" : 5126, 
            "count" : 24, 
            "max" : [
                1.0, 
                1.0, 
                1.0
            ], 
            "min" : [
                -1.0, 
                -1.0, 
                -1.0
            ], 
            "type" : "VEC3"
        }, 
        {
            "bufferView" : 3, 
            "componentType" : 5123, 
            "count" : 18987, 
            "max" : [
                12827
            ], 
            "min" : [
                0
            ], 
            "type" : "SCALAR"
        }, 
        {
            "bufferView" : 4, 
            "componentType" : 5126, 
            "count" : 12828, 
            "max" : [
                2.083102226257324, 
                12.298130989074707, 
                3.1720614433288574
            ], 
            "min" : [
                -2.3002915382385254, 
                -0.015151500701904297, 
                -2.9185307025909424
            ], 
            "type" : "VEC3"
        }, 
        {
            "bufferView" : 5, 
            "componentType" : 5126, 
            "count" : 12828, 
            "max" : [
                0.9999313354492188, 
                1.0, 
                0.9996818900108337
            ], 
            "min" : [
                -0.9999321699142456, 
                -0.9999673962593079, 
                -0.9964117407798767
            ], 
            "type" : "VEC3"
        }
    ], 
    "asset" : {
        "generator" : "Khronos Blender glTF 2.0 exporter", 
        "version" : "2.0"
    }, 
    "bufferViews" : [
        {
            "buffer" : 0, 
            "byteLength" : 36, 
            "byteOffset" : 0, 
            "target" : 34963
        }, 
        {
            "buffer" : 0, 
            "byteLength" : 288, 
            "byteOffset" : 36, 
            "target" : 34962
        }, 
        {
            "buffer" : 0, 
            "byteLength" : 288, 
            "byteOffset" : 324, 
            "target" : 34962
        }, 
        {
            "buffer" : 0, 
            "byteLength" : 37974, 
            "byteOffset" : 612, 
            "target" : 34963
        }, 
        {
            "buffer" : 0, 
            "byteLength" : 153936, 
            "byteOffset" : 38588, 
            "target" : 34962
        }, 
        {
            "buffer" : 0, 
            "byteLength" : 153936, 
            "byteOffset" : 192524, 
            "target" : 34962
        }
    ], 
    "buffers" : [
        {
            "byteLength" : 346460, 
            "uri" : "tree25.bin"
        }
    ], 
    "materials" : [
        {
            "name" : "hvjhvh", 
            "pbrMetallicRoughness" : {
                "baseColorFactor" : [
                    0.2756032943725586, 
                    0.09640341997146606, 
                    0.0324011854827404, 
                    1.0
                ]
            }
        }, 
        {
            "name" : "Material.002", 
            "pbrMetallicRoughness" : {
                "baseColorFactor" : [
                    0.2756032943725586, 
                    0.09640341997146606, 
                    0.0324011854827404, 
                    1.0
                ]
            }
        }
    ], 
    "meshes" : [
        {
            "name" : "Cube.002", 
            "primitives" : [
                {
                    "attributes" : {
                        "NORMAL" : 2, 
                        "POSITION" : 1
                    }, 
                    "indices" : 0, 
                    "material" : 1
                }
            ]
        }, 
        {
            "name" : "Cube.001", 
            "primitives" : [
                {
                    "attributes" : {
                        "NORMAL" : 5, 
                        "POSITION" : 4
                    }, 
                    "indices" : 3, 
                    "material" : 0
                }
            ]
        }
    ], 
    "nodes" : [
        {
            "name" : "Camera", 
            "rotation" : [
                0.483536034822464, 
                0.33687159419059753, 
                -0.20870360732078552, 
                0.7804827094078064
            ], 
            "translation" : [
                7.481131553649902, 
                5.34366512298584, 
                6.5076398849487305
            ]
        }, 
        {
            "mesh" : 1, 
            "name" : "Cube", 
            "translation" : [
                0.5166805982589722, 
                -0.1322920024394989, 
                -0.3697648048400879
            ]
        }, 
        {
            "mesh" : 0, 
            "name" : "Cube.001", 
            "scale" : [
                0.18634958565235138, 
                0.18634958565235138, 
                0.18634958565235138
            ], 
            "translation" : [
                0.40512245893478394, 
                7.1318464279174805, 
                -0.2428281605243683
            ]
        }, 
        {
            "name" : "Lamp", 
            "rotation" : [
                0.16907575726509094, 
                0.7558802962303162, 
                -0.27217137813568115, 
                0.570947527885437
            ], 
            "scale" : [
                1.0, 
                1.0, 
                0.9999999403953552
            ], 
            "translation" : [
                0.5733355283737183, 
                7.241459369659424, 
                0.8992557525634766
            ]
        }
    ], 
    "scene" : 0, 
    "scenes" : [
        {
            "name" : "Scene", 
            "nodes" : [
                2, 
                1, 
                3, 
                0
            ]
        }
    ]
}
