{
    "accessors" : [
        {
            "bufferView" : 0, 
            "componentType" : 5123, 
            "count" : 3831, 
            "max" : [
                3694
            ], 
            "min" : [
                0
            ], 
            "type" : "SCALAR"
        }, 
        {
            "bufferView" : 1, 
            "componentType" : 5126, 
            "count" : 3695, 
            "max" : [
                1.0281007289886475, 
                0.13101381063461304, 
                0.9900092482566833
            ], 
            "min" : [
                -1.0073305368423462, 
                -0.06570374220609665, 
                -1.0255495309829712
            ], 
            "type" : "VEC3"
        }, 
        {
            "bufferView" : 2, 
            "componentType" : 5126, 
            "count" : 3695, 
            "max" : [
                0.7701671123504639, 
                0.9999865889549255, 
                0.9985863566398621
            ], 
            "min" : [
                -0.7744284868240356, 
                0.04958386346697807, 
                -0.7090105414390564
            ], 
            "type" : "VEC3"
        }, 
        {
            "bufferView" : 3, 
            "componentType" : 5123, 
            "count" : 2904, 
            "max" : [
                2811
            ], 
            "min" : [
                0
            ], 
            "type" : "SCALAR"
        }, 
        {
            "bufferView" : 4, 
            "componentType" : 5126, 
            "count" : 2812, 
            "max" : [
                1.3150789737701416, 
                0.919826865196228, 
                1.3508199453353882
            ], 
            "min" : [
                -1.316693902015686, 
                -0.0001696969848126173, 
                -1.3182637691497803
            ], 
            "type" : "VEC3"
        }, 
        {
            "bufferView" : 5, 
            "componentType" : 5126, 
            "count" : 2812, 
            "max" : [
                0.9814215898513794, 
                1.0, 
                0.9993759989738464
            ], 
            "min" : [
                -0.9896761178970337, 
                -0.9864909648895264, 
                -0.9993575215339661
            ], 
            "type" : "VEC3"
        }
    ], 
    "asset" : {
        "generator" : "Khronos Blender glTF 2.0 exporter", 
        "version" : "2.0"
    }, 
    "bufferViews" : [
        {
            "buffer" : 0, 
            "byteLength" : 7662, 
            "byteOffset" : 0, 
            "target" : 34963
        }, 
        {
            "buffer" : 0, 
            "byteLength" : 44340, 
            "byteOffset" : 7664, 
            "target" : 34962
        }, 
        {
            "buffer" : 0, 
            "byteLength" : 44340, 
            "byteOffset" : 52004, 
            "target" : 34962
        }, 
        {
            "buffer" : 0, 
            "byteLength" : 5808, 
            "byteOffset" : 96344, 
            "target" : 34963
        }, 
        {
            "buffer" : 0, 
            "byteLength" : 33744, 
            "byteOffset" : 102152, 
            "target" : 34962
        }, 
        {
            "buffer" : 0, 
            "byteLength" : 33744, 
            "byteOffset" : 135896, 
            "target" : 34962
        }
    ], 
    "buffers" : [
        {
            "byteLength" : 169640, 
            "uri" : "cave.bin"
        }
    ], 
    "materials" : [
        {
            "doubleSided" : true, 
            "name" : "Material.002", 
            "pbrMetallicRoughness" : {
                "baseColorFactor" : [
                    1.0, 
                    0.4020827114582062, 
                    0.10099149495363235, 
                    1.0
                ], 
                "metallicFactor" : 0.0, 
                "roughnessFactor" : 0.0
            }
        }, 
        {
            "doubleSided" : true, 
            "name" : "Material.003", 
            "pbrMetallicRoughness" : {
                "baseColorFactor" : [
                    1.0, 
                    0.16925762593746185, 
                    0.08360502123832703, 
                    1.0
                ], 
                "metallicFactor" : 0.0, 
                "roughnessFactor" : 0.0
            }
        }
    ], 
    "meshes" : [
        {
            "name" : "Plane.001", 
            "primitives" : [
                {
                    "attributes" : {
                        "NORMAL" : 2, 
                        "POSITION" : 1
                    }, 
                    "indices" : 0, 
                    "material" : 0
                }
            ]
        }, 
        {
            "name" : "Plane", 
            "primitives" : [
                {
                    "attributes" : {
                        "NORMAL" : 5, 
                        "POSITION" : 4
                    }, 
                    "indices" : 3, 
                    "material" : 1
                }
            ]
        }
    ], 
    "nodes" : [
        {
            "name" : "Camera", 
            "rotation" : [
                0.483536034822464, 
                0.33687159419059753, 
                -0.20870360732078552, 
                0.7804827094078064
            ], 
            "translation" : [
                7.481131553649902, 
                5.34366512298584, 
                6.5076398849487305
            ]
        }, 
        {
            "name" : "Lamp", 
            "rotation" : [
                0.16907575726509094, 
                0.7558803558349609, 
                -0.27217137813568115, 
                0.570947527885437
            ], 
            "scale" : [
                0.4694690406322479, 
                0.43217983841896057, 
                0.4912649691104889
            ], 
            "translation" : [
                -1.2936182022094727, 
                2.28372859954834, 
                5.910848617553711
            ]
        }, 
        {
            "mesh" : 1, 
            "name" : "Plane", 
            "scale" : [
                6.098297119140625, 
                6.098297119140625, 
                6.098297119140625
            ], 
            "translation" : [
                0.0, 
                -0.4921140670776367, 
                -0.0
            ]
        }, 
        {
            "mesh" : 0, 
            "name" : "Plane.001", 
            "scale" : [
                -8.076661109924316, 
                -8.076661109924316, 
                -8.076661109924316
            ], 
            "translation" : [
                0.0, 
                0.11216318607330322, 
                -0.0
            ]
        }
    ], 
    "scene" : 0, 
    "scenes" : [
        {
            "name" : "Scene", 
            "nodes" : [
                3, 
                2, 
                1, 
                0
            ]
        }
    ]
}
