{"accessors":{"accessor_0":{"bufferView":"bufferView_0","byteOffset":0,"byteStride":0,"componentType":5126,"count":16387,"min":[-1,-1,-1.0000009536743164],"max":[1.0000020265579224,1,1],"type":"VEC3"},"accessor_1":{"bufferView":"bufferView_0","byteOffset":196644,"byteStride":0,"componentType":5126,"count":16387,"min":[0,0],"max":[1,1],"type":"VEC2"},"accessor_2":{"bufferView":"bufferView_1","byteOffset":0,"byteStride":0,"componentType":5123,"count":97536,"min":[0],"max":[16386],"type":"SCALAR"}},"asset":{"generator":"obj2gltf","profile":{"api":"WebGL","version":"1.0"},"version":"1.0","premultipliedAlpha":true},"buffers":{"buffer":{"byteLength":522812,"uri":"data:application/octet-stream;base64,","type":"arraybuffer"}},"bufferViews":{"bufferView_0":{"buffer":"buffer","byteLength":327740,"byteOffset":0,"target":34962},"bufferView_1":{"buffer":"buffer","byteLength":195072,"byteOffset":327740,"target":34963}},"extensionsUsed":[],"images":{"world.200408.3x5400x2700":{"name":"world.200408.3x5400x2700","uri":"data:image/jpeg;base64,"}},"materials":{"Material.001":{"technique":"technique0","values":{"ambient":[0,0,0,1],"diffuse":[0,0,0,1],"emission":"texture_world.200408.3x5400x2700","specular":[0.05,0.05,0.05,1],"shininess":96.078431,"transparency":1}}},"meshes":{"Sphere-Mesh":{"name":"Sphere-Mesh","primitives":[{"attributes":{"POSITION":"accessor_0","TEXCOORD_0":"accessor_1"},"indices":"accessor_2","material":"Material.001","mode":4}]}},"nodes":{"Sphere":{"name":"Sphere","meshes":["Sphere-Mesh"],"children":[],"matrix":[1,0,0,0,0,1,0,0,0,0,1,0,0,0,0,1]}},"samplers":{"sampler":{"magFilter":9729,"minFilter":9729,"wrapS":10497,"wrapT":10497}},"scene":"scene","scenes":{"scene":{"nodes":["Sphere"]}},"textures":{"texture_world.200408.3x5400x2700":{"format":6407,"internalFormat":6407,"sampler":"sampler","source":"world.200408.3x5400x2700","target":3553,"type":5121}},"animations":{},"cameras":{},"programs":{"program0":{"attributes":["a_position","a_texcoord_0"],"fragmentShader":"fragmentShader0","vertexShader":"vertexShader0"}},"shaders":{"vertexShader0":{"type":35633,"uri":"data:text/plain;base64,"},"fragmentShader0":{"type":35632,"uri":"data:text/plain;base64,"}},"skins":{},"techniques":{"technique0":{"attributes":{"a_position":"position","a_texcoord_0":"texcoord_0"},"parameters":{"modelViewMatrix":{"semantic":"MODELVIEW","type":35676},"projectionMatrix":{"semantic":"PROJECTION","type":35676},"ambient":{"type":35666},"diffuse":{"type":35666},"emission":{"type":35678},"specular":{"type":35666},"shininess":{"type":5126},"transparency":{"type":5126},"position":{"semantic":"POSITION","type":35665},"texcoord_0":{"semantic":"TEXCOORD_0","type":35664}},"program":"program0","states":{"enable":[2884,2929]},"uniforms":{"u_modelViewMatrix":"modelViewMatrix","u_projectionMatrix":"projectionMatrix","u_ambient":"ambient","u_diffuse":"diffuse","u_emission":"emission","u_specular":"specular","u_shininess":"shininess","u_transparency":"transparency"}}}}
