{
    "accessors" : [
        {
            "bufferView" : 0, 
            "componentType" : 5123, 
            "count" : 6144, 
            "max" : [
                6137
            ], 
            "min" : [
                0
            ], 
            "type" : "SCALAR"
        }, 
        {
            "bufferView" : 1, 
            "componentType" : 5126, 
            "count" : 6138, 
            "max" : [
                1.757502555847168, 
                0.5782200694084167, 
                1.809340000152588
            ], 
            "min" : [
                -1.7567287683486938, 
                -0.1132805347442627, 
                -1.7525502443313599
            ], 
            "type" : "VEC3"
        }, 
        {
            "bufferView" : 2, 
            "componentType" : 5126, 
            "count" : 6138, 
            "max" : [
                0.9657588005065918, 
                1.0, 
                0.9203183054924011
            ], 
            "min" : [
                -0.9354143142700195, 
                -0.25640547275543213, 
                -0.9997683763504028
            ], 
            "type" : "VEC3"
        }
    ], 
    "asset" : {
        "generator" : "Khronos Blender glTF 2.0 exporter", 
        "version" : "2.0"
    }, 
    "bufferViews" : [
        {
            "buffer" : 0, 
            "byteLength" : 12288, 
            "byteOffset" : 0, 
            "target" : 34963
        }, 
        {
            "buffer" : 0, 
            "byteLength" : 73656, 
            "byteOffset" : 12288, 
            "target" : 34962
        }, 
        {
            "buffer" : 0, 
            "byteLength" : 73656, 
            "byteOffset" : 85944, 
            "target" : 34962
        }
    ], 
    "buffers" : [
        {
            "byteLength" : 159600, 
            "uri" : "terrain.bin"
        }
    ], 
    "materials" : [
        {
            "name" : "Material.001", 
            "pbrMetallicRoughness" : {
                "baseColorFactor" : [
                    1.0, 
                    0.6467728018760681, 
                    0.4687819182872772, 
                    1.0
                ], 
                "metallicFactor" : 0.0, 
                "roughnessFactor" : 0.0
            }
        }
    ], 
    "meshes" : [
        {
            "name" : "Plane", 
            "primitives" : [
                {
                    "attributes" : {
                        "NORMAL" : 2, 
                        "POSITION" : 1
                    }, 
                    "indices" : 0, 
                    "material" : 0
                }
            ]
        }
    ], 
    "nodes" : [
        {
            "name" : "Camera", 
            "rotation" : [
                0.483536034822464, 
                0.33687159419059753, 
                -0.20870360732078552, 
                0.7804827094078064
            ], 
            "translation" : [
                7.481131553649902, 
                5.34366512298584, 
                6.5076398849487305
            ]
        }, 
        {
            "name" : "Lamp", 
            "rotation" : [
                0.16907575726509094, 
                0.7558802962303162, 
                -0.27217137813568115, 
                0.570947527885437
            ], 
            "scale" : [
                1.0, 
                1.0, 
                0.9999999403953552
            ], 
            "translation" : [
                4.076245307922363, 
                5.903861999511719, 
                -1.0054539442062378
            ]
        }, 
        {
            "mesh" : 0, 
            "name" : "Plane", 
            "scale" : [
                7.995131015777588, 
                7.995131015777588, 
                7.995131015777588
            ], 
            "translation" : [
                0.0, 
                0.11786756664514542, 
                -0.0
            ]
        }
    ], 
    "scene" : 0, 
    "scenes" : [
        {
            "name" : "Scene", 
            "nodes" : [
                2, 
                1, 
                0
            ]
        }
    ]
}
